<?xml version="1.0" encoding="UTF-8" standalone="no"?>
<!DOCTYPE svg PUBLIC "-//W3C//DTD SVG 1.1//EN" "http://www.w3.org/Graphics/SVG/1.1/DTD/svg11.dtd">
<svg width="100%" height="100%" viewBox="0 0 730 380" version="1.1" xmlns="http://www.w3.org/2000/svg" xmlns:xlink="http://www.w3.org/1999/xlink" xml:space="preserve" xmlns:serif="http://www.serif.com/" style="fill-rule:evenodd;clip-rule:evenodd;stroke-linecap:round;stroke-linejoin:round;stroke-miterlimit:1.5;">
    <g transform="matrix(1.00241,0,0,0.886335,-16.1915,-27.4501)">
        <rect x="10.849" y="26.178" width="734.256" height="437.012" style="fill:rgb(188,212,222);stroke:white;stroke-width:2.2px;"/>
    </g>
    <g transform="matrix(1.22627,0,0,0.967997,-110.678,-114.466)">
        <path d="M658.433,152.443C658.433,143.654 652.8,136.518 645.862,136.518L170.595,136.518C163.657,136.518 158.024,143.654 158.024,152.443L158.024,259.192C158.024,267.981 163.657,275.117 170.595,275.117L645.862,275.117C652.8,275.117 658.433,267.981 658.433,259.192L658.433,152.443Z" style="fill:rgb(44,54,94);"/>
    </g>
    <g transform="matrix(1.22627,0,0,1.30609,-110.678,-4.16683)">
        <path d="M658.433,152.443C658.433,143.654 650.832,136.518 641.471,136.518L174.985,136.518C165.624,136.518 158.024,143.654 158.024,152.443L158.024,259.192C158.024,267.981 165.624,275.117 174.985,275.117L641.471,275.117C650.832,275.117 658.433,267.981 658.433,259.192L658.433,152.443Z" style="fill:rgb(44,54,94);"/>
    </g>
    <g transform="matrix(1.49014,0,0,1.49014,20.1233,76.7276)">
        <g id="path7560" transform="matrix(0.807662,0,0,0.807662,-72.6013,-57.2023)">
            <circle cx="111.31" cy="170.419" r="21.243" style="fill:rgb(0,152,118);"/>
        </g>
        <g id="path12906" transform="matrix(0.807662,0,0,0.807662,-72.6013,-57.2023)">
            <path d="M124.594,167.323C125.179,166.27 125.487,165.09 125.487,163.881C125.487,162.643 125.158,161.419 124.535,160.34C122.676,157.122 118.655,155.914 115.355,157.482C115.058,156.987 114.701,156.53 114.29,156.119C112.952,154.781 111.17,154.044 109.272,154.044C105.557,154.044 102.502,156.921 102.209,160.573C99.729,160.618 97.432,161.965 96.192,164.114C94.33,167.334 95.299,171.422 98.315,173.498C97.73,174.552 97.423,175.731 97.423,176.941C97.423,178.179 97.752,179.403 98.375,180.482C99.687,182.755 102.079,184.028 104.533,184.028C105.554,184.028 106.587,183.806 107.557,183.345C107.854,183.838 108.209,184.293 108.619,184.704C109.957,186.041 111.739,186.778 113.637,186.778C117.352,186.778 120.407,183.9 120.7,180.248C123.181,180.203 125.478,178.856 126.717,176.707C128.579,173.488 127.611,169.399 124.595,167.323L124.594,167.323ZM123.59,160.885C124.117,161.798 124.396,162.834 124.396,163.88C124.396,164.887 124.143,165.868 123.664,166.748L116.092,162.376C115.923,162.279 115.715,162.279 115.547,162.376L107.629,166.936L107.635,163.164L115.378,158.694C115.387,158.689 115.395,158.685 115.403,158.68C118.263,157.034 121.937,158.023 123.59,160.885L123.59,160.885ZM115.282,172.624L111.449,174.832L107.62,172.614L107.627,168.196L111.46,165.988L115.289,168.206L115.282,172.624ZM103.271,161.126C103.275,157.823 105.968,155.135 109.272,155.135C110.878,155.135 112.386,155.758 113.518,156.89C113.855,157.226 114.147,157.599 114.393,158.002L106.817,162.376C106.649,162.474 106.544,162.653 106.544,162.847L106.53,171.983L103.271,170.096L103.271,161.126ZM97.136,164.66C98.177,162.856 100.099,161.726 102.18,161.67L102.18,170.41C102.18,170.605 102.283,170.785 102.452,170.882L110.358,175.46L107.09,177.342L99.37,172.884C99.356,172.874 99.342,172.866 99.327,172.857C96.465,171.198 95.481,167.522 97.137,164.66L97.136,164.66ZM99.319,179.936C98.792,179.023 98.513,177.987 98.513,176.941C98.513,175.934 98.766,174.953 99.245,174.073L106.817,178.445C106.901,178.494 106.995,178.518 107.09,178.518C107.183,178.518 107.278,178.494 107.362,178.445L115.28,173.885L115.274,177.657L107.531,182.128C107.522,182.133 107.514,182.137 107.506,182.141C104.645,183.787 100.972,182.797 99.319,179.936L99.319,179.936ZM119.638,179.695C119.633,182.999 116.941,185.687 113.637,185.687C112.031,185.687 110.523,185.063 109.391,183.931C109.054,183.595 108.761,183.222 108.516,182.82L116.092,178.445C116.26,178.347 116.364,178.168 116.364,177.974L116.379,168.838L119.638,170.725L119.638,179.695ZM125.772,176.161C124.732,177.966 122.81,179.096 120.729,179.151L120.729,170.411C120.729,170.217 120.625,170.036 120.457,169.939L112.551,165.36L115.819,163.479L123.539,167.937C123.553,167.947 123.567,167.956 123.582,167.965C126.444,169.623 127.427,173.3 125.772,176.161L125.772,176.161Z" style="fill:rgb(238,229,233);fill-rule:nonzero;stroke:white;stroke-width:0.5px;stroke-linecap:butt;stroke-linejoin:miter;stroke-miterlimit:4;"/>
        </g>
    </g>
    <g transform="matrix(1.49014,0,0,1.49014,20.3347,17.6838)">
        <g id="path7560-7" transform="matrix(0.807662,0,0,0.807662,-77.5744,-120.859)">
            <circle cx="117.292" cy="170.884" r="21.243" style="fill:rgb(117,81,153);"/>
        </g>
        <g transform="matrix(0.807662,0,0,0.807662,6.9616,25.5291)">
            <g id="text8858">
                <text x="0px" y="0px" style="font-family:'Noteworthy-Light', 'Noteworthy';font-weight:300;font-size:24.753px;fill:rgb(238,229,233);">LF</text>
            </g>
        </g>
    </g>
    <g transform="matrix(0.921001,0,0,0.921001,-81.3744,-55.0094)">
        <text x="202.064px" y="103.77px" style="font-family:'PTMono-Regular', 'PT Mono', monospace;font-size:18.096px;fill:rgb(238,229,233);">Your <tspan x="259.317px " y="103.77px ">ﬁ</tspan>rst <tspan x="316.57px " y="103.77px ">j</tspan>oke <tspan x="373.823px " y="103.77px ">i</tspan>s <tspan x="409.36px " y="103.77px ">g</tspan>reat! <tspan x="488.329px " y="103.77px ">C</tspan>an <tspan x="534.724px " y="103.77px ">y</tspan>ou <tspan x="581.119px " y="103.77px ">t</tspan>ry <tspan x="627.514px " y="103.77px ">t</tspan>his <tspan x="684.767px " y="103.77px ">w</tspan>ith <tspan x="742.02px 752.877px 766.699px " y="103.77px 103.77px 103.77px ">a n</tspan>ew</text>
        <text x="202.064px" y="130.914px" style="font-family:'PTMono-Regular', 'PT Mono', monospace;font-size:18.096px;fill:rgb(238,229,233);">joke, <tspan x="265.043px " y="130.914px ">w</tspan>here <tspan x="328.021px " y="130.914px ">t</tspan>he <tspan x="369.283px " y="130.914px ">k</tspan>eyword <tspan x="453.977px " y="130.914px ">i</tspan>s <tspan x="484.382px " y="130.914px ">&quot;</tspan>elf&quot; <tspan x="547.36px " y="130.914px ">a</tspan>nd <tspan x="588.623px " y="130.914px ">t</tspan>he <tspan x="629.885px " y="130.914px ">w</tspan>ord <tspan x="682.006px " y="130.914px ">t</tspan>hat <tspan x="734.126px " y="130.914px ">s</tspan>ounds</text>
        <text x="202.064px" y="158.059px" style="font-family:'PTMono-Regular', 'PT Mono', monospace;font-size:18.096px;fill:rgb(238,229,233);">like <tspan x="257.442px " y="158.059px ">i</tspan>t <tspan x="291.104px " y="158.059px ">i</tspan>s <tspan x="324.767px " y="158.059px ">&quot;</tspan>health&quot;? <tspan x="434.433px " y="158.059px ">S</tspan>o <tspan x="468.095px " y="158.059px ">y</tspan>ou <tspan x="512.615px " y="158.059px ">w</tspan>ant <tspan x="567.993px " y="158.059px ">t</tspan>he <tspan x="612.513px " y="158.059px ">p</tspan>unchline <tspan x="722.179px " y="158.059px ">t</tspan>o <tspan x="755.841px " y="158.059px ">h</tspan>ave</text>
        <text x="202.064px" y="185.203px" style="font-family:'PTMono-Regular', 'PT Mono', monospace;font-size:18.096px;fill:rgb(238,229,233);">&quot;elf&quot; <tspan x="268.421px " y="185.203px ">i</tspan>n <tspan x="302.204px " y="185.203px ">p</tspan>lace <tspan x="368.561px " y="185.203px ">o</tspan>f <tspan x="402.344px " y="185.203px ">t</tspan>he <tspan x="446.985px " y="185.203px ">w</tspan>ord <tspan x="502.483px " y="185.203px ">&quot;</tspan>health&quot; <tspan x="601.413px " y="185.203px ">b</tspan>ecause <tspan x="689.485px " y="185.203px ">t</tspan>hey <tspan x="744.984px " y="185.203px ">s</tspan>ound</text>
        <text x="202.064px" y="212.348px" style="font-family:'PTMono-Regular', 'PT Mono', monospace;font-size:18.096px;fill:rgb(238,229,233);">the same.</text>
    </g>
    <g transform="matrix(0.921001,0,0,0.921001,-81.3744,99.4047)">
        <text x="202.064px" y="103.77px" style="font-family:'PTMono-Regular', 'PT Mono', monospace;font-size:18.096px;fill:rgb(238,229,233);">S<tspan x="212.741px 223.418px 234.095px 244.772px 255.448px 266.125px 276.802px 287.479px 298.156px 308.832px 319.509px 330.186px 340.863px 351.539px 362.216px 372.893px 383.57px 394.247px 404.923px 415.6px 426.277px 436.954px 447.631px 458.307px 468.984px 479.661px 490.338px 501.014px 511.691px 522.368px 533.045px 543.722px 554.398px 565.075px 575.752px 586.429px 597.106px 607.782px 618.459px 629.136px 639.813px 650.49px 661.166px 671.843px 682.52px 693.197px 703.873px 714.55px 725.227px 735.904px 746.581px " y="103.77px 103.77px 103.77px 103.77px 103.77px 103.77px 103.77px 103.77px 103.77px 103.77px 103.77px 103.77px 103.77px 103.77px 103.77px 103.77px 103.77px 103.77px 103.77px 103.77px 103.77px 103.77px 103.77px 103.77px 103.77px 103.77px 103.77px 103.77px 103.77px 103.77px 103.77px 103.77px 103.77px 103.77px 103.77px 103.77px 103.77px 103.77px 103.77px 103.77px 103.77px 103.77px 103.77px 103.77px 103.77px 103.77px 103.77px 103.77px 103.77px 103.77px 103.77px ">ure, here is one possible joke: &quot;Why was the elf so</tspan></text>
        <text x="202.064px" y="135.439px" style="font-family:'PTMono-Regular', 'PT Mono', monospace;font-size:18.096px;fill:rgb(238,229,233);">h<tspan x="212.741px 223.418px 234.095px 244.772px 255.448px 266.125px 276.802px 287.479px 298.156px 308.832px 319.509px 330.186px 340.863px 351.539px 362.216px 372.893px 383.57px 394.247px 404.923px 415.6px 426.277px 436.954px 447.631px 458.307px 468.984px 479.661px 490.338px 501.014px 511.691px 522.368px 533.045px 543.722px 554.398px 565.075px 575.752px 586.429px 597.106px 607.782px 618.459px 629.136px 639.813px 650.49px 661.166px 671.843px 682.52px 693.197px 703.873px 714.55px 725.227px 735.904px 746.581px 757.257px 767.934px 778.611px " y="135.439px 135.439px 135.439px 135.439px 135.439px 135.439px 135.439px 135.439px 135.439px 135.439px 135.439px 135.439px 135.439px 135.439px 135.439px 135.439px 135.439px 135.439px 135.439px 135.439px 135.439px 135.439px 135.439px 135.439px 135.439px 135.439px 135.439px 135.439px 135.439px 135.439px 135.439px 135.439px 135.439px 135.439px 135.439px 135.439px 135.439px 135.439px 135.439px 135.439px 135.439px 135.439px 135.439px 135.439px 135.439px 135.439px 135.439px 135.439px 135.439px 135.439px 135.439px 135.439px 135.439px 135.439px ">ealthy? Because he was an elf-th!&quot;. This joke uses the</tspan></text>
        <text x="202.064px" y="167.107px" style="font-family:'PTMono-Regular', 'PT Mono', monospace;font-size:18.096px;fill:rgb(238,229,233);">w<tspan x="212.741px 223.418px 234.095px 244.772px 255.448px 266.125px 276.802px 287.479px 298.156px 308.832px 319.509px 330.186px 340.863px 351.539px 362.216px 372.893px 383.57px 394.247px 404.923px 415.6px 426.277px 436.954px 447.631px 458.307px 468.984px 479.661px 490.338px 501.014px 511.691px 522.368px 533.045px 543.722px 554.398px 565.075px 575.752px 586.429px 597.106px 607.782px 618.459px 629.136px 639.813px 650.49px 661.166px 671.843px 682.52px 693.197px 703.873px 714.55px 725.227px 735.904px 746.581px 757.257px 767.934px 778.611px " y="167.107px 167.107px 167.107px 167.107px 167.107px 167.107px 167.107px 167.107px 167.107px 167.107px 167.107px 167.107px 167.107px 167.107px 167.107px 167.107px 167.107px 167.107px 167.107px 167.107px 167.107px 167.107px 167.107px 167.107px 167.107px 167.107px 167.107px 167.107px 167.107px 167.107px 167.107px 167.107px 167.107px 167.107px 167.107px 167.107px 167.107px 167.107px 167.107px 167.107px 167.107px 167.107px 167.107px 167.107px 167.107px 167.107px 167.107px 167.107px 167.107px 167.107px 167.107px 167.107px 167.107px 167.107px ">ord &quot;health&quot; with &quot;elf&quot; replacing &quot;health&quot; to create a</tspan></text>
        <text x="202.064px" y="198.775px" style="font-family:'PTMono-Regular', 'PT Mono', monospace;font-size:18.096px;fill:rgb(238,229,233);">h<tspan x="212.741px 223.418px 234.095px 244.772px 255.448px 266.125px 276.802px 287.479px 298.156px 308.832px 319.509px 330.186px 340.863px 351.539px 362.216px 372.893px 383.57px 394.247px 404.923px 415.6px 426.277px 436.954px 447.631px 458.307px 468.984px 479.661px 490.338px 501.014px 511.691px 522.368px 533.045px 543.722px 554.398px 565.075px 575.752px 586.429px 597.106px 607.782px 618.459px 629.136px 639.813px 650.49px 661.166px 671.843px 682.52px 693.197px 703.873px 714.55px 725.227px 735.904px 746.581px 757.257px 767.934px 778.611px " y="198.775px 198.775px 198.775px 198.775px 198.775px 198.775px 198.775px 198.775px 198.775px 198.775px 198.775px 198.775px 198.775px 198.775px 198.775px 198.775px 198.775px 198.775px 198.775px 198.775px 198.775px 198.775px 198.775px 198.775px 198.775px 198.775px 198.775px 198.775px 198.775px 198.775px 198.775px 198.775px 198.775px 198.775px 198.775px 198.775px 198.775px 198.775px 198.775px 198.775px 198.775px 198.775px 198.775px 198.775px 198.775px 198.775px 198.775px 198.775px 198.775px 198.775px 198.775px 198.775px 198.775px 198.775px ">umorous play on words. Another possible joke could be:</tspan></text>
        <text x="202.064px" y="230.444px" style="font-family:'PTMono-Regular', 'PT Mono', monospace;font-size:18.096px;fill:rgb(238,229,233);">&quot;<tspan x="212.741px 223.418px 234.095px 244.772px 255.448px 266.125px 276.802px 287.479px 298.156px 308.832px 319.509px 330.186px 340.863px 351.539px 362.216px 372.893px 383.57px 394.247px 404.923px 415.6px 426.277px 436.954px 447.631px 458.307px 468.984px 479.661px 490.338px 501.014px 511.691px 522.368px 533.045px 543.722px 554.398px 565.075px 575.752px 586.429px 597.106px 607.782px 618.459px 629.136px 639.813px 650.49px 661.166px 671.843px 682.52px 693.197px 703.873px 714.55px 725.227px " y="230.444px 230.444px 230.444px 230.444px 230.444px 230.444px 230.444px 230.444px 230.444px 230.444px 230.444px 230.444px 230.444px 230.444px 230.444px 230.444px 230.444px 230.444px 230.444px 230.444px 230.444px 230.444px 230.444px 230.444px 230.444px 230.444px 230.444px 230.444px 230.444px 230.444px 230.444px 230.444px 230.444px 230.444px 230.444px 230.444px 230.444px 230.444px 230.444px 230.444px 230.444px 230.444px 230.444px 230.444px 230.444px 230.444px 230.444px 230.444px 230.444px ">Why did the elf never get sick? Because he had an</tspan></text>
        <text x="202.064px" y="262.112px" style="font-family:'PTMono-Regular', 'PT Mono', monospace;font-size:18.096px;fill:rgb(238,229,233);">e<tspan x="212.741px 223.418px 234.095px 244.772px 255.448px 266.125px 276.802px 287.479px 298.156px 308.832px 319.509px 330.186px 340.863px 351.539px 362.216px 372.893px 383.57px 394.247px 404.923px 415.6px 426.277px 436.954px 447.631px 458.307px " y="262.112px 262.112px 262.112px 262.112px 262.112px 262.112px 262.112px 262.112px 262.112px 262.112px 262.112px 262.112px 262.112px 262.112px 262.112px 262.112px 262.112px 262.112px 262.112px 262.112px 262.112px 262.112px 262.112px 262.112px ">lf-thly immune system!&quot;.</tspan></text>
    </g>
</svg>
