<?xml version="1.0" encoding="UTF-8" standalone="no"?>
<!DOCTYPE svg PUBLIC "-//W3C//DTD SVG 1.1//EN" "http://www.w3.org/Graphics/SVG/1.1/DTD/svg11.dtd">
<svg width="100%" height="100%" viewBox="0 0 730 380" version="1.1" xmlns="http://www.w3.org/2000/svg" xmlns:xlink="http://www.w3.org/1999/xlink" xml:space="preserve" xmlns:serif="http://www.serif.com/" style="fill-rule:evenodd;clip-rule:evenodd;stroke-linecap:round;stroke-linejoin:round;stroke-miterlimit:1.5;">
    <g transform="matrix(1.00241,0,0,0.886335,-16.1915,-27.4501)">
        <rect x="10.849" y="26.178" width="734.256" height="437.012" style="fill:rgb(188,212,222);stroke:white;stroke-width:2.2px;"/>
    </g>
    <g transform="matrix(1.22627,0,0,0.967997,-110.678,-114.466)">
        <path d="M658.433,152.443C658.433,143.654 652.8,136.518 645.862,136.518L170.595,136.518C163.657,136.518 158.024,143.654 158.024,152.443L158.024,259.192C158.024,267.981 163.657,275.117 170.595,275.117L645.862,275.117C652.8,275.117 658.433,267.981 658.433,259.192L658.433,152.443Z" style="fill:rgb(44,54,94);"/>
    </g>
    <g transform="matrix(1.22627,0,0,1.30609,-110.678,-4.16683)">
        <path d="M658.433,152.443C658.433,143.654 650.832,136.518 641.471,136.518L174.985,136.518C165.624,136.518 158.024,143.654 158.024,152.443L158.024,259.192C158.024,267.981 165.624,275.117 174.985,275.117L641.471,275.117C650.832,275.117 658.433,267.981 658.433,259.192L658.433,152.443Z" style="fill:rgb(44,54,94);"/>
    </g>
    <g transform="matrix(1.49014,0,0,1.49014,20.1233,76.7276)">
        <g id="path7560" transform="matrix(0.807662,0,0,0.807662,-72.6013,-57.2023)">
            <circle cx="111.31" cy="170.419" r="21.243" style="fill:rgb(0,152,118);"/>
        </g>
        <g id="path12906" transform="matrix(0.807662,0,0,0.807662,-72.6013,-57.2023)">
            <path d="M124.594,167.323C125.179,166.27 125.487,165.09 125.487,163.881C125.487,162.643 125.158,161.419 124.535,160.34C122.676,157.122 118.655,155.914 115.355,157.482C115.058,156.987 114.701,156.53 114.29,156.119C112.952,154.781 111.17,154.044 109.272,154.044C105.557,154.044 102.502,156.921 102.209,160.573C99.729,160.618 97.432,161.965 96.192,164.114C94.33,167.334 95.299,171.422 98.315,173.498C97.73,174.552 97.423,175.731 97.423,176.941C97.423,178.179 97.752,179.403 98.375,180.482C99.687,182.755 102.079,184.028 104.533,184.028C105.554,184.028 106.587,183.806 107.557,183.345C107.854,183.838 108.209,184.293 108.619,184.704C109.957,186.041 111.739,186.778 113.637,186.778C117.352,186.778 120.407,183.9 120.7,180.248C123.181,180.203 125.478,178.856 126.717,176.707C128.579,173.488 127.611,169.399 124.595,167.323L124.594,167.323ZM123.59,160.885C124.117,161.798 124.396,162.834 124.396,163.88C124.396,164.887 124.143,165.868 123.664,166.748L116.092,162.376C115.923,162.279 115.715,162.279 115.547,162.376L107.629,166.936L107.635,163.164L115.378,158.694C115.387,158.689 115.395,158.685 115.403,158.68C118.263,157.034 121.937,158.023 123.59,160.885L123.59,160.885ZM115.282,172.624L111.449,174.832L107.62,172.614L107.627,168.196L111.46,165.988L115.289,168.206L115.282,172.624ZM103.271,161.126C103.275,157.823 105.968,155.135 109.272,155.135C110.878,155.135 112.386,155.758 113.518,156.89C113.855,157.226 114.147,157.599 114.393,158.002L106.817,162.376C106.649,162.474 106.544,162.653 106.544,162.847L106.53,171.983L103.271,170.096L103.271,161.126ZM97.136,164.66C98.177,162.856 100.099,161.726 102.18,161.67L102.18,170.41C102.18,170.605 102.283,170.785 102.452,170.882L110.358,175.46L107.09,177.342L99.37,172.884C99.356,172.874 99.342,172.866 99.327,172.857C96.465,171.198 95.481,167.522 97.137,164.66L97.136,164.66ZM99.319,179.936C98.792,179.023 98.513,177.987 98.513,176.941C98.513,175.934 98.766,174.953 99.245,174.073L106.817,178.445C106.901,178.494 106.995,178.518 107.09,178.518C107.183,178.518 107.278,178.494 107.362,178.445L115.28,173.885L115.274,177.657L107.531,182.128C107.522,182.133 107.514,182.137 107.506,182.141C104.645,183.787 100.972,182.797 99.319,179.936L99.319,179.936ZM119.638,179.695C119.633,182.999 116.941,185.687 113.637,185.687C112.031,185.687 110.523,185.063 109.391,183.931C109.054,183.595 108.761,183.222 108.516,182.82L116.092,178.445C116.26,178.347 116.364,178.168 116.364,177.974L116.379,168.838L119.638,170.725L119.638,179.695ZM125.772,176.161C124.732,177.966 122.81,179.096 120.729,179.151L120.729,170.411C120.729,170.217 120.625,170.036 120.457,169.939L112.551,165.36L115.819,163.479L123.539,167.937C123.553,167.947 123.567,167.956 123.582,167.965C126.444,169.623 127.427,173.3 125.772,176.161L125.772,176.161Z" style="fill:rgb(238,229,233);fill-rule:nonzero;stroke:white;stroke-width:0.5px;stroke-linecap:butt;stroke-linejoin:miter;stroke-miterlimit:4;"/>
        </g>
    </g>
    <g transform="matrix(1.49014,0,0,1.49014,20.3347,17.6838)">
        <g id="path7560-7" transform="matrix(0.807662,0,0,0.807662,-77.5744,-120.859)">
            <circle cx="117.292" cy="170.884" r="21.243" style="fill:rgb(117,81,153);"/>
        </g>
        <g transform="matrix(0.807662,0,0,0.807662,6.9616,25.5291)">
            <g id="text8858">
                <text x="0px" y="0px" style="font-family:'Noteworthy-Light', 'Noteworthy';font-weight:300;font-size:24.753px;fill:rgb(238,229,233);">LF</text>
            </g>
        </g>
    </g>
    <g transform="matrix(0.921001,0,0,0.921001,-81.3744,-55.0094)">
        <text x="202.064px" y="103.77px" style="font-family:'PTMono-Regular', 'PT Mono', monospace;font-size:18.096px;fill:rgb(238,229,233);">Let&apos;s <tspan x="268.421px " y="103.77px ">g</tspan>o <tspan x="302.204px " y="103.77px ">w</tspan>ith <tspan x="357.703px " y="103.77px ">&quot;</tspan>alph&quot; <tspan x="434.917px " y="103.77px ">a</tspan>s <tspan x="468.7px " y="103.77px ">i</tspan>n <tspan x="502.483px " y="103.77px ">&quot;</tspan>alphabet&quot; <tspan x="623.129px " y="103.77px ">w</tspan>hich <tspan x="689.485px " y="103.77px ">d</tspan>oes <tspan x="744.984px " y="103.77px ">s</tspan>ound</text>
        <text x="202.064px" y="130.914px" style="font-family:'PTMono-Regular', 'PT Mono', monospace;font-size:18.096px;fill:rgb(238,229,233);">like <tspan x="255.369px " y="130.914px ">e</tspan>lf. <tspan x="308.674px " y="130.914px ">T</tspan>he <tspan x="351.12px " y="130.914px ">p</tspan>unchline <tspan x="458.714px " y="130.914px ">o</tspan>f <tspan x="490.303px " y="130.914px ">o</tspan>ur <tspan x="532.75px " y="130.914px ">j</tspan>oke <tspan x="586.054px " y="130.914px ">n</tspan>eeds <tspan x="650.216px " y="130.914px ">t</tspan>o <tspan x="681.806px " y="130.914px ">s</tspan>ound <tspan x="745.968px 756.826px 766.699px " y="130.914px 130.914px 130.914px ">a b</tspan>it</text>
        <text x="202.064px" y="158.059px" style="font-family:'PTMono-Regular', 'PT Mono', monospace;font-size:18.096px;fill:rgb(238,229,233);">like <tspan x="257.714px " y="158.059px ">&quot;</tspan>alphabet&quot;, <tspan x="389.369px " y="158.059px ">b</tspan>ut <tspan x="434.161px " y="158.059px ">w</tspan>ith <tspan x="489.811px " y="158.059px ">&quot;</tspan>elf&quot; <tspan x="556.318px " y="158.059px ">i</tspan>nstead <tspan x="644.542px " y="158.059px ">o</tspan>f <tspan x="678.476px " y="158.059px ">&quot;</tspan>alph&quot;. <tspan x="766.699px " y="158.059px ">C</tspan>an</text>
        <text x="202.064px" y="185.203px" style="font-family:'PTMono-Regular', 'PT Mono', monospace;font-size:18.096px;fill:rgb(238,229,233);">you <tspan x="246.857px " y="185.203px ">w</tspan>rite <tspan x="313.364px 324.222px 336.441px " y="185.203px 185.203px 185.203px ">a s</tspan>entence <tspan x="435.522px " y="185.203px ">t</tspan>hat <tspan x="491.172px " y="185.203px ">i</tspan>ncludes <tspan x="590.253px " y="185.203px ">t</tspan>he <tspan x="635.045px " y="185.203px ">w</tspan>ord <tspan x="690.695px " y="185.203px ">&quot;</tspan>alphabet&quot;</text>
        <text x="202.064px" y="212.348px" style="font-family:'PTMono-Regular', 'PT Mono', monospace;font-size:18.096px;fill:rgb(238,229,233);">except &quot;elf&quot; replaces &quot;alph&quot;?</text>
    </g>
    <g transform="matrix(0.921001,0,0,0.921001,-81.3744,99.4047)">
        <text x="202.064px" y="103.77px" style="font-family:'PTMono-Regular', 'PT Mono', monospace;font-size:18.096px;fill:rgb(238,229,233);">O<tspan x="212.741px 223.418px 234.095px 248.037px 258.713px 269.39px 280.067px 290.744px 301.421px 312.097px 322.774px 333.451px 347.393px 358.069px 368.746px 379.423px 390.1px 400.777px 411.453px 422.13px 432.807px 446.749px 457.426px 468.102px 478.779px 489.456px 500.133px 514.074px 524.751px 535.428px 549.37px 560.047px 570.723px 581.4px 592.077px 606.019px 616.696px 627.372px 638.049px 651.991px 662.668px 673.345px 684.021px 697.963px 708.64px 719.317px 729.993px 743.935px 754.612px 765.289px 775.966px 789.907px 800.584px " y="103.77px 103.77px 103.77px 103.77px 103.77px 103.77px 103.77px 103.77px 103.77px 103.77px 103.77px 103.77px 103.77px 103.77px 103.77px 103.77px 103.77px 103.77px 103.77px 103.77px 103.77px 103.77px 103.77px 103.77px 103.77px 103.77px 103.77px 103.77px 103.77px 103.77px 103.77px 103.77px 103.77px 103.77px 103.77px 103.77px 103.77px 103.77px 103.77px 103.77px 103.77px 103.77px 103.77px 103.77px 103.77px 103.77px 103.77px 103.77px 103.77px 103.77px 103.77px 103.77px 103.77px ">ne possible sentence could be &quot;Why was the elf bad at</tspan></text>
        <text x="202.064px" y="135.439px" style="font-family:'PTMono-Regular', 'PT Mono', monospace;font-size:18.096px;fill:rgb(238,229,233);">s<tspan x="212.741px 223.418px 234.095px 244.772px 255.448px 266.125px 276.802px 287.479px 298.156px 313.497px 324.173px 334.85px 345.527px 356.204px 366.881px 377.557px 388.234px 403.575px 414.252px 424.929px 440.27px 450.947px 461.623px 472.3px 487.641px 498.318px 508.995px 524.336px 535.013px 545.69px 556.366px 567.043px 577.72px 588.397px 599.073px 609.75px 620.427px 631.104px 641.781px 652.457px 667.798px 678.475px 689.152px 699.829px 710.506px 725.847px 736.523px 747.2px 757.877px 768.554px 779.231px 789.907px 800.584px " y="135.439px 135.439px 135.439px 135.439px 135.439px 135.439px 135.439px 135.439px 135.439px 135.439px 135.439px 135.439px 135.439px 135.439px 135.439px 135.439px 135.439px 135.439px 135.439px 135.439px 135.439px 135.439px 135.439px 135.439px 135.439px 135.439px 135.439px 135.439px 135.439px 135.439px 135.439px 135.439px 135.439px 135.439px 135.439px 135.439px 135.439px 135.439px 135.439px 135.439px 135.439px 135.439px 135.439px 135.439px 135.439px 135.439px 135.439px 135.439px 135.439px 135.439px 135.439px 135.439px 135.439px ">pelling? Because he was an elf-a-bet!&quot;. This sentence</tspan></text>
        <text x="202.064px" y="167.107px" style="font-family:'PTMono-Regular', 'PT Mono', monospace;font-size:18.096px;fill:rgb(238,229,233);">i<tspan x="212.741px 223.418px 234.095px 244.772px 255.448px 266.125px 276.802px 287.479px 298.244px 308.921px 319.598px 330.274px 341.04px 351.716px 362.393px 373.07px 383.747px 394.512px 405.189px 415.866px 426.543px 437.219px 447.896px 458.573px 469.25px 479.926px 490.603px 501.28px 512.045px 522.722px 533.399px 544.076px 554.753px 565.518px 576.195px 586.871px 597.548px 608.225px 618.902px 629.667px 640.344px 651.021px 661.697px 672.374px 683.051px 693.728px 704.405px 715.081px 725.758px 736.523px 747.2px 757.877px 768.554px 779.231px 789.907px 800.584px " y="167.107px 167.107px 167.107px 167.107px 167.107px 167.107px 167.107px 167.107px 167.107px 167.107px 167.107px 167.107px 167.107px 167.107px 167.107px 167.107px 167.107px 167.107px 167.107px 167.107px 167.107px 167.107px 167.107px 167.107px 167.107px 167.107px 167.107px 167.107px 167.107px 167.107px 167.107px 167.107px 167.107px 167.107px 167.107px 167.107px 167.107px 167.107px 167.107px 167.107px 167.107px 167.107px 167.107px 167.107px 167.107px 167.107px 167.107px 167.107px 167.107px 167.107px 167.107px 167.107px 167.107px 167.107px 167.107px 167.107px ">ncludes the word &quot;alphabet&quot; with &quot;elf&quot; replacing &quot;alph&quot;,</tspan></text>
        <text x="202.064px" y="198.775px" style="font-family:'PTMono-Regular', 'PT Mono', monospace;font-size:18.096px;fill:rgb(238,229,233);">w<tspan x="212.741px 223.418px 234.095px 244.772px 255.448px 267.537px 278.214px 288.891px 299.568px 310.244px 320.921px 331.598px 342.275px 354.364px 365.04px 377.129px 387.806px 398.483px 409.16px 419.836px 430.513px 441.19px 451.867px 462.544px 474.632px 485.309px 495.986px 506.663px 517.339px 529.428px 540.105px 550.782px 562.871px 573.548px 584.224px 594.901px 605.578px 616.255px 626.931px 639.02px 649.697px 660.374px 671.051px 681.727px 692.404px 703.081px 713.758px 725.847px 736.523px 747.2px 757.877px 768.554px 779.231px 789.907px 800.584px " y="198.775px 198.775px 198.775px 198.775px 198.775px 198.775px 198.775px 198.775px 198.775px 198.775px 198.775px 198.775px 198.775px 198.775px 198.775px 198.775px 198.775px 198.775px 198.775px 198.775px 198.775px 198.775px 198.775px 198.775px 198.775px 198.775px 198.775px 198.775px 198.775px 198.775px 198.775px 198.775px 198.775px 198.775px 198.775px 198.775px 198.775px 198.775px 198.775px 198.775px 198.775px 198.775px 198.775px 198.775px 198.775px 198.775px 198.775px 198.775px 198.775px 198.775px 198.775px 198.775px 198.775px 198.775px 198.775px ">hich creates a humorous play on words. Another possible</tspan></text>
        <text x="202.064px" y="230.444px" style="font-family:'PTMono-Regular', 'PT Mono', monospace;font-size:18.096px;fill:rgb(238,229,233);">s<tspan x="212.741px 223.418px 234.095px 244.772px 255.448px 266.125px 276.802px 287.479px 296.082px 306.759px 317.436px 328.112px 338.789px 349.466px 358.069px 368.746px 379.423px 388.026px 398.703px 409.38px 420.057px 430.734px 439.337px 450.014px 460.691px 471.367px 479.971px 490.648px 501.324px 512.001px 520.604px 531.281px 541.958px 552.635px 561.238px 571.915px 582.592px 593.269px 603.945px 614.622px 625.299px 633.902px 644.579px 655.256px 663.859px 674.536px 685.213px 695.89px 706.567px 717.243px 727.92px 736.523px 747.2px 757.877px 768.554px 779.231px 789.907px 800.584px " y="230.444px 230.444px 230.444px 230.444px 230.444px 230.444px 230.444px 230.444px 230.444px 230.444px 230.444px 230.444px 230.444px 230.444px 230.444px 230.444px 230.444px 230.444px 230.444px 230.444px 230.444px 230.444px 230.444px 230.444px 230.444px 230.444px 230.444px 230.444px 230.444px 230.444px 230.444px 230.444px 230.444px 230.444px 230.444px 230.444px 230.444px 230.444px 230.444px 230.444px 230.444px 230.444px 230.444px 230.444px 230.444px 230.444px 230.444px 230.444px 230.444px 230.444px 230.444px 230.444px 230.444px 230.444px 230.444px 230.444px 230.444px 230.444px ">entence could be &quot;Why was the elf always so happy? Because</tspan></text>
        <text x="202.064px" y="262.112px" style="font-family:'PTMono-Regular', 'PT Mono', monospace;font-size:18.096px;fill:rgb(238,229,233);">h<tspan x="212.741px 223.418px 234.095px 244.772px 255.448px 266.125px 276.802px 287.479px 298.156px 308.832px 319.509px 330.186px 340.863px 351.539px 362.216px 372.893px 383.57px 394.247px 404.923px 415.6px 426.277px " y="262.112px 262.112px 262.112px 262.112px 262.112px 262.112px 262.112px 262.112px 262.112px 262.112px 262.112px 262.112px 262.112px 262.112px 262.112px 262.112px 262.112px 262.112px 262.112px 262.112px 262.112px ">e was an elf-a-bet!&quot;.</tspan></text>
    </g>
</svg>
