<?xml version="1.0" encoding="UTF-8" standalone="no"?>
<!DOCTYPE svg PUBLIC "-//W3C//DTD SVG 1.1//EN" "http://www.w3.org/Graphics/SVG/1.1/DTD/svg11.dtd">
<svg width="100%" height="100%" viewBox="0 0 730 380" version="1.1" xmlns="http://www.w3.org/2000/svg" xmlns:xlink="http://www.w3.org/1999/xlink" xml:space="preserve" xmlns:serif="http://www.serif.com/" style="fill-rule:evenodd;clip-rule:evenodd;stroke-linecap:round;stroke-linejoin:round;stroke-miterlimit:1.5;">
    <g transform="matrix(1.00241,0,0,0.886335,-16.1915,-27.4501)">
        <rect x="10.849" y="26.178" width="734.256" height="437.012" style="fill:rgb(188,212,222);stroke:white;stroke-width:2.2px;"/>
    </g>
    <g transform="matrix(1.22627,0,0,0.417224,-110.119,-39.275)">
        <path d="M658.433,152.443C658.433,143.654 656.005,136.518 653.014,136.518L163.442,136.518C160.452,136.518 158.024,143.654 158.024,152.443L158.024,259.192C158.024,267.981 160.452,275.117 163.442,275.117L653.014,275.117C656.005,275.117 658.433,267.981 658.433,259.192L658.433,152.443Z" style="fill:rgb(44,54,94);"/>
    </g>
    <g transform="matrix(1.23057,0,0,1.82073,-111.571,-159.252)">
        <path d="M658.433,141.341C658.433,138.679 655.235,136.518 651.297,136.518L165.16,136.518C161.221,136.518 158.024,138.679 158.024,141.341L158.024,270.294C158.024,272.956 161.221,275.117 165.16,275.117L651.297,275.117C655.235,275.117 658.433,272.956 658.433,270.294L658.433,141.341Z" style="fill:rgb(44,54,94);"/>
    </g>
    <g transform="matrix(1.49014,0,0,1.49014,19.0385,-2.65565)">
        <g id="path7560" transform="matrix(0.807662,0,0,0.807662,-72.6013,-57.2023)">
            <circle cx="111.31" cy="170.419" r="21.243" style="fill:rgb(0,152,118);"/>
        </g>
        <g id="path12906" transform="matrix(0.807662,0,0,0.807662,-72.6013,-57.2023)">
            <path d="M124.594,167.323C125.179,166.27 125.487,165.09 125.487,163.881C125.487,162.643 125.158,161.419 124.535,160.34C122.676,157.122 118.655,155.914 115.355,157.482C115.058,156.987 114.701,156.53 114.29,156.119C112.952,154.781 111.17,154.044 109.272,154.044C105.557,154.044 102.502,156.921 102.209,160.573C99.729,160.618 97.432,161.965 96.192,164.114C94.33,167.334 95.299,171.422 98.315,173.498C97.73,174.552 97.423,175.731 97.423,176.941C97.423,178.179 97.752,179.403 98.375,180.482C99.687,182.755 102.079,184.028 104.533,184.028C105.554,184.028 106.587,183.806 107.557,183.345C107.854,183.838 108.209,184.293 108.619,184.704C109.957,186.041 111.739,186.778 113.637,186.778C117.352,186.778 120.407,183.9 120.7,180.248C123.181,180.203 125.478,178.856 126.717,176.707C128.579,173.488 127.611,169.399 124.595,167.323L124.594,167.323ZM123.59,160.885C124.117,161.798 124.396,162.834 124.396,163.88C124.396,164.887 124.143,165.868 123.664,166.748L116.092,162.376C115.923,162.279 115.715,162.279 115.547,162.376L107.629,166.936L107.635,163.164L115.378,158.694C115.387,158.689 115.395,158.685 115.403,158.68C118.263,157.034 121.937,158.023 123.59,160.885L123.59,160.885ZM115.282,172.624L111.449,174.832L107.62,172.614L107.627,168.196L111.46,165.988L115.289,168.206L115.282,172.624ZM103.271,161.126C103.275,157.823 105.968,155.135 109.272,155.135C110.878,155.135 112.386,155.758 113.518,156.89C113.855,157.226 114.147,157.599 114.393,158.002L106.817,162.376C106.649,162.474 106.544,162.653 106.544,162.847L106.53,171.983L103.271,170.096L103.271,161.126ZM97.136,164.66C98.177,162.856 100.099,161.726 102.18,161.67L102.18,170.41C102.18,170.605 102.283,170.785 102.452,170.882L110.358,175.46L107.09,177.342L99.37,172.884C99.356,172.874 99.342,172.866 99.327,172.857C96.465,171.198 95.481,167.522 97.137,164.66L97.136,164.66ZM99.319,179.936C98.792,179.023 98.513,177.987 98.513,176.941C98.513,175.934 98.766,174.953 99.245,174.073L106.817,178.445C106.901,178.494 106.995,178.518 107.09,178.518C107.183,178.518 107.278,178.494 107.362,178.445L115.28,173.885L115.274,177.657L107.531,182.128C107.522,182.133 107.514,182.137 107.506,182.141C104.645,183.787 100.972,182.797 99.319,179.936L99.319,179.936ZM119.638,179.695C119.633,182.999 116.941,185.687 113.637,185.687C112.031,185.687 110.523,185.063 109.391,183.931C109.054,183.595 108.761,183.222 108.516,182.82L116.092,178.445C116.26,178.347 116.364,178.168 116.364,177.974L116.379,168.838L119.638,170.725L119.638,179.695ZM125.772,176.161C124.732,177.966 122.81,179.096 120.729,179.151L120.729,170.411C120.729,170.217 120.625,170.036 120.457,169.939L112.551,165.36L115.819,163.479L123.539,167.937C123.553,167.947 123.567,167.956 123.582,167.965C126.444,169.623 127.427,173.3 125.772,176.161L125.772,176.161Z" style="fill:rgb(238,229,233);fill-rule:nonzero;stroke:white;stroke-width:0.5px;stroke-linecap:butt;stroke-linejoin:miter;stroke-miterlimit:4;"/>
        </g>
    </g>
    <g transform="matrix(1.49014,0,0,1.49014,21.4195,17.6838)">
        <g id="path7560-7" transform="matrix(0.807662,0,0,0.807662,-77.5744,-120.859)">
            <circle cx="117.292" cy="170.884" r="21.243" style="fill:rgb(117,81,153);"/>
        </g>
        <g transform="matrix(0.807662,0,0,0.807662,6.9616,25.5291)">
            <g id="text8858">
                <text x="0px" y="0px" style="font-family:'Noteworthy-Light', 'Noteworthy';font-weight:300;font-size:24.753px;fill:rgb(238,229,233);">LF</text>
            </g>
        </g>
    </g>
    <g transform="matrix(0.921001,0,0,0.921001,-75.7732,-56.4688)">
        <text x="202.064px" y="103.77px" style="font-family:'PTMono-Regular', 'PT Mono', monospace;font-size:18.096px;fill:rgb(238,229,233);">I&apos;m <tspan x="244.293px " y="103.77px ">t</tspan>rying <tspan x="319.094px " y="103.77px ">t</tspan>o <tspan x="350.464px " y="103.77px ">w</tspan>rite <tspan x="414.408px " y="103.77px ">C</tspan>hristmas <tspan x="521.782px " y="103.77px ">C</tspan>racker <tspan x="607.442px " y="103.77px ">j</tspan>okes, <tspan x="682.243px " y="103.77px ">d</tspan>o <tspan x="713.613px " y="103.77px ">y</tspan>ou <tspan x="755.841px " y="103.77px ">k</tspan>now</text>
        <text x="202.064px" y="130.914px" style="font-family:'PTMono-Regular', 'PT Mono', monospace;font-size:18.096px;fill:rgb(238,229,233);">any?</text>
    </g>
    <g transform="matrix(0.921001,0,0,0.921001,-77.0305,22.2107)">
        <text x="202.064px" y="103.77px" style="font-family:'PTMono-Regular', 'PT Mono', monospace;font-size:18.096px;fill:rgb(238,229,233);">-<tspan x="212.741px 223.418px 234.095px 244.772px 255.448px 266.125px 276.802px 287.479px 298.156px 308.832px 319.509px 330.186px 340.863px 351.539px 362.216px 372.893px 383.57px 394.247px 404.923px 415.6px 426.277px 436.954px 447.631px 458.307px 468.984px 479.661px 490.338px 501.014px 511.691px 522.368px 533.045px 543.722px 554.398px 565.075px 575.752px 586.429px 597.106px 607.782px 618.459px " y="103.77px 103.77px 103.77px 103.77px 103.77px 103.77px 103.77px 103.77px 103.77px 103.77px 103.77px 103.77px 103.77px 103.77px 103.77px 103.77px 103.77px 103.77px 103.77px 103.77px 103.77px 103.77px 103.77px 103.77px 103.77px 103.77px 103.77px 103.77px 103.77px 103.77px 103.77px 103.77px 103.77px 103.77px 103.77px 103.77px 103.77px 103.77px 103.77px "> Why did Santa&apos;s helper see the doctor?</tspan></text>
        <text x="202.064px" y="135.439px" style="font-family:'PTMono-Regular', 'PT Mono', monospace;font-size:18.096px;fill:rgb(238,229,233);">B<tspan x="212.741px 223.418px 234.095px 244.772px 255.448px 266.125px 276.802px 287.479px 298.156px 308.832px 319.509px 330.186px 340.863px 351.539px 362.216px 372.893px 383.57px 394.247px 404.923px 415.6px 426.277px 436.954px 447.631px 458.307px 468.984px 479.661px 490.338px 501.014px 511.691px 522.368px 533.045px 543.722px 554.398px " y="135.439px 135.439px 135.439px 135.439px 135.439px 135.439px 135.439px 135.439px 135.439px 135.439px 135.439px 135.439px 135.439px 135.439px 135.439px 135.439px 135.439px 135.439px 135.439px 135.439px 135.439px 135.439px 135.439px 135.439px 135.439px 135.439px 135.439px 135.439px 135.439px 135.439px 135.439px 135.439px 135.439px ">ecause he had a low &quot;elf&quot; esteem!</tspan></text>
        <text x="202.064px" y="167.107px" style="font-family:'PTMono-Regular', 'PT Mono', monospace;font-size:18.096px;fill:rgb(238,229,233);">-<tspan x="212.741px 223.418px 234.095px 244.772px 255.448px 266.125px 276.802px 287.479px 298.156px 308.832px 319.509px 330.186px 340.863px 351.539px 362.216px 372.893px 383.57px 394.247px 404.923px 415.6px 426.277px 436.954px 447.631px 458.307px 468.984px 479.661px 490.338px 501.014px 511.691px 522.368px 533.045px 543.722px 554.398px 565.075px 575.752px 586.429px 597.106px 607.782px 618.459px 629.136px 639.813px " y="167.107px 167.107px 167.107px 167.107px 167.107px 167.107px 167.107px 167.107px 167.107px 167.107px 167.107px 167.107px 167.107px 167.107px 167.107px 167.107px 167.107px 167.107px 167.107px 167.107px 167.107px 167.107px 167.107px 167.107px 167.107px 167.107px 167.107px 167.107px 167.107px 167.107px 167.107px 167.107px 167.107px 167.107px 167.107px 167.107px 167.107px 167.107px 167.107px 167.107px 167.107px "> Why was the reindeer wearing sunglasses?</tspan></text>
        <text x="202.064px" y="198.775px" style="font-family:'PTMono-Regular', 'PT Mono', monospace;font-size:18.096px;fill:rgb(238,229,233);">B<tspan x="212.741px 223.418px 234.095px 244.772px 255.448px 266.125px 276.802px 287.479px 298.156px 308.832px 319.509px 330.186px 340.863px 351.539px 362.216px 372.893px 383.57px 394.247px 404.923px 415.6px 426.277px 436.954px 447.631px 458.307px 468.984px 479.661px 490.338px 501.014px 511.691px 522.368px 533.045px " y="198.775px 198.775px 198.775px 198.775px 198.775px 198.775px 198.775px 198.775px 198.775px 198.775px 198.775px 198.775px 198.775px 198.775px 198.775px 198.775px 198.775px 198.775px 198.775px 198.775px 198.775px 198.775px 198.775px 198.775px 198.775px 198.775px 198.775px 198.775px 198.775px 198.775px 198.775px ">ecause the snow was too bright!</tspan></text>
        <text x="202.064px" y="230.444px" style="font-family:'PTMono-Regular', 'PT Mono', monospace;font-size:18.096px;fill:rgb(238,229,233);">-<tspan x="212.741px 223.418px 234.095px 244.772px 255.448px 266.125px 276.802px 287.479px 298.156px 308.832px 319.509px 330.186px 340.863px 351.539px 362.216px 372.893px 383.57px 394.247px 404.923px 415.6px 426.277px 436.954px 447.631px 458.307px 468.984px 479.661px 490.338px 501.014px 511.691px 522.368px 533.045px 543.722px 554.398px 565.075px " y="230.444px 230.444px 230.444px 230.444px 230.444px 230.444px 230.444px 230.444px 230.444px 230.444px 230.444px 230.444px 230.444px 230.444px 230.444px 230.444px 230.444px 230.444px 230.444px 230.444px 230.444px 230.444px 230.444px 230.444px 230.444px 230.444px 230.444px 230.444px 230.444px 230.444px 230.444px 230.444px 230.444px 230.444px "> Why did the turkey join the band?</tspan></text>
        <text x="202.064px" y="262.112px" style="font-family:'PTMono-Regular', 'PT Mono', monospace;font-size:18.096px;fill:rgb(238,229,233);">B<tspan x="212.741px 223.418px 234.095px 244.772px 255.448px 266.125px 276.802px 287.479px 298.156px 308.832px 319.509px 330.186px 340.863px 351.539px 362.216px 372.893px 383.57px 394.247px 404.923px 415.6px 426.277px 436.954px 447.631px 458.307px 468.984px 479.661px 490.338px 501.014px 511.691px " y="262.112px 262.112px 262.112px 262.112px 262.112px 262.112px 262.112px 262.112px 262.112px 262.112px 262.112px 262.112px 262.112px 262.112px 262.112px 262.112px 262.112px 262.112px 262.112px 262.112px 262.112px 262.112px 262.112px 262.112px 262.112px 262.112px 262.112px 262.112px 262.112px ">ecause it had the drumsticks!</tspan></text>
        <text x="202.064px" y="293.781px" style="font-family:'PTMono-Regular', 'PT Mono', monospace;font-size:18.096px;fill:rgb(238,229,233);">-<tspan x="212.741px 223.418px 234.095px 244.772px 255.448px 266.125px 276.802px 287.479px 298.156px 308.832px 319.509px 330.186px 340.863px 351.539px 362.216px 372.893px 383.57px 394.247px 404.923px 415.6px 426.277px 436.954px 447.631px 458.307px 468.984px 479.661px 490.338px 501.014px 511.691px 522.368px 533.045px 543.722px 554.398px 565.075px 575.752px 586.429px 597.106px 607.782px 618.459px 629.136px 639.813px 650.49px 661.166px 671.843px 682.52px 693.197px 703.873px 714.55px " y="293.781px 293.781px 293.781px 293.781px 293.781px 293.781px 293.781px 293.781px 293.781px 293.781px 293.781px 293.781px 293.781px 293.781px 293.781px 293.781px 293.781px 293.781px 293.781px 293.781px 293.781px 293.781px 293.781px 293.781px 293.781px 293.781px 293.781px 293.781px 293.781px 293.781px 293.781px 293.781px 293.781px 293.781px 293.781px 293.781px 293.781px 293.781px 293.781px 293.781px 293.781px 293.781px 293.781px 293.781px 293.781px 293.781px 293.781px 293.781px "> What do you get if you cross Santa with a duck?</tspan></text>
        <text x="202.064px" y="325.449px" style="font-family:'PTMono-Regular', 'PT Mono', monospace;font-size:18.096px;fill:rgb(238,229,233);">A<tspan x="212.741px 223.418px 234.095px 244.772px 255.448px 266.125px 276.802px 287.479px 298.156px 308.832px 319.509px 330.186px 340.863px 351.539px 362.216px 372.893px 383.57px 394.247px 404.923px " y="325.449px 325.449px 325.449px 325.449px 325.449px 325.449px 325.449px 325.449px 325.449px 325.449px 325.449px 325.449px 325.449px 325.449px 325.449px 325.449px 325.449px 325.449px 325.449px "> Christmas quacker!</tspan></text>
    </g>
</svg>
